<?xml version="1.0" standalone="no"?>
<!DOCTYPE svg PUBLIC "-//W3C//DTD SVG 20010904//EN"
 "http://www.w3.org/TR/2001/REC-SVG-20010904/DTD/svg10.dtd">
<svg version="1.0" xmlns="http://www.w3.org/2000/svg"
 width="900000.000000pt" height="900000000.000000pt" viewBox="0 0 900.000000 1000.000000"
 preserveAspectRatio="xMidYMid meet">
<metadata>
Created by potrace 1.16, written by Peter Selinger 2001-2019
</metadata>
<g transform="translate(0.000000,900.000000) scale(0.100000,-0.100000)"
fill="#000000" stroke="none">
<path d="M4355 8412 c-27 -10 -93 -42 -145 -71 -52 -30 -115 -65 -140 -79 -25
-14 -95 -53 -155 -87 -61 -34 -146 -82 -190 -105 -44 -24 -84 -46 -90 -50 -9
-7 -202 -115 -310 -175 -139 -77 -392 -218 -400 -224 -5 -5 -44 -26 -85 -48
-41 -22 -139 -77 -218 -122 -78 -44 -144 -81 -146 -81 -3 0 -26 -13 -53 -29
-26 -16 -217 -123 -423 -238 -446 -250 -573 -321 -621 -348 -19 -11 -88 -49
-153 -84 -140 -77 -206 -138 -250 -230 l-31 -66 0 -1870 0 -1870 31 -65 c57
-121 73 -133 444 -340 91 -51 183 -102 205 -115 43 -23 243 -135 615 -345 129
-73 309 -174 400 -225 91 -51 296 -166 455 -255 160 -89 340 -190 400 -225 61
-34 189 -106 285 -160 96 -54 240 -135 320 -180 249 -141 270 -150 380 -161
96 -9 165 16 385 141 61 35 166 94 235 133 69 38 143 80 165 92 107 60 290
163 480 270 202 113 396 222 480 270 22 13 135 76 250 140 116 65 280 157 365
205 312 176 569 320 745 417 357 198 384 219 442 344 l28 59 3 1845 c2 1811 2
1846 -17 1910 -24 79 -104 181 -177 227 -27 17 -186 107 -354 200 -429 239
-557 310 -785 438 -110 62 -222 125 -250 140 -84 46 -481 267 -655 365 -180
101 -174 97 -470 262 -113 63 -312 174 -443 247 -131 74 -259 140 -284 147
-65 20 -206 17 -268 -4z m533 -1312 c736 -112 1386 -524 1798 -1141 41 -62 73
-117 71 -122 -1 -5 -232 -141 -512 -301 -281 -161 -535 -306 -566 -324 l-57
-32 -65 87 c-198 266 -465 439 -792 514 -143 32 -387 32 -530 0 -521 -119
-898 -495 -1015 -1016 -31 -133 -33 -377 -6 -505 131 -614 612 -1034 1220
-1067 446 -24 893 196 1140 559 33 48 62 86 65 84 3 -2 258 -142 566 -311 308
-169 564 -311 569 -316 19 -17 -141 -254 -290 -428 -411 -481 -1003 -798
-1654 -887 -184 -26 -510 -23 -695 5 -293 44 -528 117 -790 245 -272 133 -486
286 -700 501 -408 407 -656 897 -747 1473 -29 183 -31 555 -4 737 129 884 666
1622 1461 2010 293 143 618 231 950 259 118 10 453 -4 583 -24z m1302 -2220
l0 -190 188 -2 187 -3 3 -187 2 -188 -190 0 -190 0 0 -190 0 -190 -190 0 -190
0 0 190 0 190 -190 0 -190 0 2 188 3 187 188 3 187 2 0 190 0 190 190 0 190 0
0 -190z m1310 173 c0 -10 2 -94 3 -188 l2 -170 188 -3 187 -2 0 -190 0 -190
-187 -2 -188 -3 -2 -185 -2 -185 -188 0 -188 0 -3 188 -2 187 -185 0 -185 0 0
190 0 190 185 0 185 0 0 183 c0 101 3 187 7 190 3 4 89 7 190 7 168 0 183 -1
183 -17z"/>
</g>
</svg>
